<?xml version="1.0" standalone="no"?>
<!DOCTYPE svg PUBLIC "-//W3C//DTD SVG 20010904//EN"
 "http://www.w3.org/TR/2001/REC-SVG-20010904/DTD/svg10.dtd">
<svg version="1.0" xmlns="http://www.w3.org/2000/svg"
 width="2084.000000pt" height="2084.000000pt" viewBox="0 0 2084.000000 2084.000000"
 preserveAspectRatio="xMidYMid meet">
<metadata>
Created by potrace 1.11, written by Peter Selinger 2001-2013
</metadata>
<g transform="translate(0.000000,2084.000000) scale(0.100000,-0.100000)"
fill="#000000" stroke="none">
<path d="M1125 16050 c-2 -4 40 -67 175 -260 17 -25 62 -89 98 -142 97 -140
263 -382 319 -463 53 -77 181 -263 251 -365 25 -36 64 -92 87 -125 23 -33 127
-184 230 -335 104 -151 193 -276 197 -278 4 -2 8 -7 8 -12 0 -4 83 -129 186
-276 102 -148 210 -305 240 -349 30 -44 108 -156 172 -250 65 -93 149 -215
187 -270 658 -955 624 -908 625 -886 0 11 82 212 390 956 21 50 75 180 120
290 45 110 88 214 95 230 8 17 56 134 108 260 128 311 246 596 257 620 5 11
30 72 56 135 25 63 52 129 59 145 8 17 46 109 86 205 111 270 265 644 314 760
102 243 165 399 165 407 0 8 -4420 12 -4425 3z"/>
<path d="M9530 16048 c0 -4 9 -12 19 -18 11 -5 25 -16 33 -23 7 -7 83 -67 168
-133 85 -66 601 -466 1145 -889 545 -423 1100 -854 1235 -959 135 -104 270
-209 300 -233 30 -23 114 -89 187 -145 72 -57 218 -170 323 -253 106 -82 204
-159 219 -170 33 -25 424 -328 471 -365 19 -15 148 -115 285 -222 l250 -194
55 37 c198 134 2067 1375 2075 1378 6 2 12 7 15 10 8 10 69 51 75 51 3 0 11 5
18 11 7 6 469 314 1027 685 1335 887 2160 1436 2160 1438 0 0 -2263 1 -5030 1
-2766 0 -5030 -3 -5030 -7z"/>
<path d="M1040 10504 l1 -5359 135 325 c74 179 139 334 144 345 5 11 52 126
105 255 158 383 195 474 205 495 5 11 42 101 83 200 41 99 122 295 180 435 58
140 176 426 262 635 86 209 172 416 190 460 37 88 75 179 255 615 67 162 137
331 155 375 19 44 68 163 110 265 42 102 80 194 85 205 15 35 175 420 176 425
0 3 5 16 11 30 18 44 115 274 126 300 5 14 11 30 13 35 1 6 41 102 88 215 48
113 105 250 128 305 23 55 49 118 58 140 9 22 30 72 45 110 16 39 32 74 37 80
4 5 8 15 8 23 0 7 8 32 19 55 10 23 49 115 86 205 l68 163 -29 42 c-17 23 -68
97 -114 165 -47 68 -131 189 -187 270 -56 81 -132 192 -169 247 -38 55 -131
189 -206 298 -76 109 -138 201 -138 203 0 2 -7 12 -15 21 -14 18 -169 241
-285 413 -36 52 -69 100 -75 106 -5 7 -59 85 -120 173 -100 147 -229 335 -415
606 -38 55 -109 159 -159 230 -50 72 -133 193 -186 270 -53 77 -137 199 -186
270 -50 72 -119 173 -155 225 -36 52 -89 129 -117 170 -29 41 -89 129 -135
194 l-82 120 0 -5360z"/>
<path d="M9424 15793 c6 -21 14 -57 20 -93 3 -14 30 -151 61 -305 31 -154 59
-291 61 -305 3 -14 39 -191 80 -395 41 -203 77 -383 80 -400 2 -16 7 -37 9
-45 2 -8 6 -26 9 -40 2 -14 12 -61 21 -105 9 -44 19 -91 21 -105 2 -14 9 -45
14 -70 5 -25 12 -56 14 -70 2 -14 23 -117 46 -230 23 -113 44 -216 46 -230 3
-14 12 -59 20 -100 9 -41 18 -86 20 -100 2 -14 7 -36 10 -50 3 -14 8 -36 10
-50 4 -21 68 -335 80 -395 2 -11 7 -33 10 -49 2 -16 18 -93 34 -170 16 -78 32
-154 34 -171 3 -16 8 -39 10 -50 2 -11 11 -54 19 -95 9 -41 18 -86 21 -100 2
-14 37 -185 76 -380 39 -195 74 -366 76 -380 3 -14 16 -77 29 -140 13 -63 26
-128 29 -145 12 -64 18 -92 51 -253 19 -92 36 -177 38 -189 2 -12 6 -25 9 -29
4 -3 83 29 177 70 94 42 249 110 343 152 95 42 191 84 213 94 105 49 474 211
485 215 3 1 32 14 65 29 33 15 114 52 180 80 66 29 140 62 165 73 25 11 83 37
130 58 47 21 105 47 130 58 25 11 146 65 270 119 124 55 226 101 227 102 2 2
-49 68 -106 135 -21 26 -105 127 -185 226 -81 99 -155 189 -164 200 -29 34
-325 396 -352 429 -13 17 -67 83 -120 147 -52 63 -111 135 -130 159 -38 48
-103 126 -123 150 -7 8 -42 51 -77 95 -35 44 -67 82 -70 85 -3 3 -35 41 -70
85 -36 44 -87 107 -115 140 -27 33 -66 81 -87 105 -153 189 -376 461 -397 486
-14 17 -42 51 -61 74 -43 54 -449 550 -495 605 -18 22 -171 209 -340 415 -168
206 -314 384 -323 395 -10 11 -64 77 -121 148 -57 70 -106 127 -108 127 -2 0
-2 -8 1 -17z"/>
<path d="M19603 15758 c-11 -13 -83 -84 -160 -158 -76 -74 -245 -237 -374
-362 -129 -124 -268 -259 -309 -298 -41 -40 -176 -170 -299 -289 -123 -119
-254 -245 -291 -281 -38 -36 -166 -160 -286 -276 -121 -117 -253 -244 -294
-284 -41 -40 -176 -169 -299 -288 -242 -234 -241 -233 -571 -552 -123 -118
-255 -246 -295 -285 -194 -188 -508 -491 -577 -556 -125 -121 -518 -501 -554
-537 l-33 -33 74 -107 c183 -264 376 -545 445 -647 41 -60 77 -112 80 -115 3
-3 30 -41 60 -85 29 -44 93 -136 140 -205 48 -69 113 -163 145 -210 32 -47
173 -251 313 -455 141 -203 280 -406 310 -450 30 -44 60 -86 66 -93 10 -10 31
32 95 190 46 112 89 217 97 233 20 48 106 254 544 1315 346 837 391 946 400
965 5 11 57 137 116 280 58 143 112 274 119 290 7 17 29 71 50 120 20 50 43
104 50 120 7 17 39 93 70 170 32 77 63 154 70 170 8 17 62 147 120 290 59 143
113 274 120 290 7 17 50 120 95 230 46 110 91 218 100 240 10 22 31 74 48 115
17 41 76 185 132 320 210 509 311 751 394 955 48 116 91 219 96 230 12 27 22
65 17 65 -2 0 -12 -10 -24 -22z"/>
<path d="M9261 15699 c-1 -7 -49 -244 -56 -274 -2 -11 -6 -31 -9 -45 -3 -14
-10 -47 -16 -75 -6 -27 -12 -59 -14 -70 -3 -11 -27 -128 -55 -260 -72 -346
-232 -1107 -236 -1125 -2 -8 -19 -91 -39 -185 -19 -93 -39 -190 -45 -215 -5
-25 -13 -61 -16 -80 -3 -19 -11 -55 -16 -80 -10 -44 -81 -380 -99 -470 -5 -25
-12 -56 -15 -70 -21 -102 -26 -130 -31 -155 -3 -16 -7 -32 -9 -35 -2 -4 -7
-22 -10 -41 -3 -19 -14 -74 -25 -124 -11 -49 -22 -101 -24 -115 -2 -14 -9 -45
-15 -70 -10 -46 -12 -53 -30 -150 -6 -30 -20 -95 -31 -145 -26 -119 -108 -504
-114 -540 -5 -27 -20 -103 -32 -155 -3 -14 -7 -36 -10 -49 -3 -13 -18 -87 -35
-165 -16 -77 -39 -186 -50 -241 -11 -55 -24 -116 -29 -135 -5 -19 -11 -48 -14
-65 -2 -16 -16 -84 -30 -150 -15 -66 -28 -131 -31 -145 -4 -20 -48 -231 -101
-475 -2 -11 -13 -67 -25 -125 -12 -58 -22 -109 -23 -115 -2 -5 -8 -36 -15 -68
-7 -32 -11 -60 -9 -62 1 -1 30 10 63 25 33 16 204 92 380 170 176 78 338 150
360 160 22 10 65 29 95 43 30 13 109 48 175 77 66 29 138 60 160 70 164 73
349 156 393 176 29 13 54 24 57 24 2 0 32 13 67 29 35 16 101 45 148 66 47 21
113 51 147 66 34 16 64 29 67 29 2 0 46 19 98 43 51 24 108 49 125 56 35 14
35 9 13 101 -5 19 -11 51 -14 70 -3 19 -8 46 -11 60 -2 14 -12 59 -20 100 -22
107 -25 121 -30 155 -3 17 -8 37 -10 45 -2 8 -6 26 -9 40 -2 14 -11 59 -20
100 -8 41 -17 87 -20 103 -3 15 -7 35 -10 45 -3 9 -7 34 -10 54 -3 21 -15 81
-27 135 -12 54 -23 109 -25 123 -4 19 -49 244 -80 395 -23 116 -36 179 -40
200 -2 14 -14 69 -25 123 -11 53 -22 108 -24 122 -2 14 -6 34 -9 45 -9 42 -95
471 -100 500 -3 17 -8 39 -10 50 -12 55 -68 333 -72 355 -2 14 -7 36 -10 50
-3 14 -8 36 -11 50 -9 49 -134 670 -189 940 -30 151 -57 286 -59 300 -2 14
-11 56 -20 95 -8 38 -18 83 -20 99 -2 17 -20 110 -40 206 -21 96 -39 186 -41
200 -20 113 -81 391 -83 379z"/>
<path d="M5550 15588 c-23 -57 -48 -116 -55 -133 -7 -16 -61 -147 -120 -290
-59 -143 -113 -273 -120 -290 -7 -16 -45 -109 -85 -205 -40 -96 -78 -188 -85
-205 -7 -16 -76 -183 -153 -370 -78 -187 -271 -655 -430 -1040 -160 -385 -296
-713 -302 -730 -7 -16 -19 -43 -25 -60 -7 -16 -36 -86 -65 -155 -28 -69 -63
-153 -77 -188 l-26 -62 30 -43 c17 -23 58 -82 92 -132 34 -49 113 -164 176
-255 62 -91 140 -203 172 -250 177 -258 446 -647 458 -663 8 -9 15 -19 15 -22
0 -3 26 -42 58 -87 67 -94 122 -174 306 -443 71 -104 132 -192 135 -195 3 -3
37 -51 74 -107 38 -57 70 -103 71 -103 2 0 3 1379 3 3065 0 1686 -1 3065 -2
3065 -2 0 -22 -46 -45 -102z"/>
<path d="M19671 15412 c-63 -152 -136 -329 -162 -392 -26 -63 -91 -221 -144
-350 -53 -129 -103 -248 -110 -265 -15 -31 -225 -540 -302 -730 -24 -60 -51
-123 -58 -140 -8 -16 -35 -82 -60 -145 -26 -63 -53 -128 -60 -145 -8 -16 -25
-59 -40 -95 -14 -36 -30 -74 -35 -85 -8 -17 -287 -691 -385 -930 -18 -44 -92
-224 -165 -400 -73 -176 -148 -358 -167 -405 -19 -47 -41 -98 -48 -115 -8 -16
-116 -277 -240 -580 -125 -302 -233 -563 -241 -580 -10 -24 -228 -551 -284
-690 -7 -16 -16 -39 -21 -50 -123 -282 -133 -318 -97 -357 7 -7 45 -60 84
-118 39 -58 98 -143 130 -190 158 -229 880 -1276 982 -1425 42 -60 114 -166
161 -235 47 -69 89 -129 93 -135 5 -5 25 -35 46 -65 53 -77 387 -563 437 -635
23 -33 113 -163 200 -290 87 -126 249 -360 359 -520 110 -159 210 -305 223
-324 l23 -34 1 44 c3 313 3 10659 -1 10659 -3 0 -56 -125 -119 -278z"/>
<path d="M9846 15569 c11 -13 113 -136 225 -274 242 -296 225 -275 414 -506
83 -100 185 -226 228 -278 43 -53 93 -114 111 -136 18 -22 140 -170 270 -330
130 -159 245 -299 254 -310 10 -11 220 -267 467 -570 247 -302 452 -552 455
-555 3 -3 23 -27 45 -55 22 -27 48 -59 57 -70 16 -19 226 -276 299 -365 19
-23 46 -56 61 -74 14 -17 81 -98 148 -181 67 -82 128 -156 135 -163 10 -12 20
-9 56 15 24 15 46 31 47 36 2 4 7 7 12 7 7 0 139 85 175 113 6 4 167 111 358
238 285 189 346 234 335 244 -7 7 -148 117 -313 245 -165 128 -316 245 -335
260 -19 15 -141 110 -270 210 -129 100 -244 189 -255 198 -11 10 -36 28 -55
42 -19 13 -37 27 -40 30 -3 3 -25 21 -50 40 -25 19 -52 40 -60 47 -8 7 -253
197 -545 424 -291 226 -543 421 -560 434 -16 13 -154 120 -305 238 -151 117
-518 402 -814 633 -297 230 -547 423 -555 428 -10 6 -8 0 5 -15z"/>
<path d="M18970 15433 c-202 -135 -2031 -1351 -3270 -2175 -569 -378 -1115
-741 -1213 -807 l-178 -119 98 -76 c54 -42 166 -128 248 -192 83 -64 164 -127
180 -140 239 -186 301 -234 305 -234 6 0 83 74 402 381 117 114 247 240 289
280 43 41 172 166 289 279 117 113 240 232 274 265 34 33 168 162 297 287 129
124 267 258 308 297 139 134 535 516 660 638 70 67 165 159 213 205 47 46 179
173 293 283 114 110 242 233 284 274 42 40 177 171 299 290 123 119 258 249
300 288 43 40 75 73 72 73 -3 -1 -70 -44 -150 -97z"/>
<path d="M13725 11945 c-236 -157 -422 -285 -414 -286 59 -3 1571 -1 1574 3 2
2 -49 44 -113 93 -64 49 -124 95 -132 102 -36 30 -480 373 -483 373 -1 0 -196
-128 -432 -285z"/>
<path d="M3875 11543 c-26 -65 -92 -226 -147 -358 -54 -132 -103 -249 -108
-260 -5 -11 -68 -164 -141 -340 -72 -176 -139 -338 -149 -360 -9 -22 -36 -87
-60 -145 -23 -58 -48 -118 -55 -135 -7 -16 -36 -86 -65 -155 -28 -69 -87 -210
-130 -315 -43 -104 -172 -415 -285 -690 -113 -275 -212 -513 -219 -530 -8 -16
-66 -158 -131 -315 -64 -157 -122 -298 -130 -315 -7 -16 -23 -55 -35 -85 -11
-30 -27 -68 -34 -85 -8 -16 -58 -136 -111 -265 -53 -129 -103 -248 -110 -265
-8 -16 -39 -93 -71 -170 -31 -77 -64 -158 -74 -180 -9 -22 -35 -85 -58 -140
-23 -55 -86 -208 -140 -340 -55 -132 -137 -330 -182 -440 -45 -110 -88 -213
-95 -230 -40 -91 -145 -349 -142 -351 3 -4 76 65 382 361 121 117 252 244 291
282 65 61 393 378 579 558 40 39 175 169 300 290 125 121 260 252 300 290 96
92 479 462 580 560 44 42 175 168 290 280 116 111 242 234 282 271 39 38 173
168 298 289 126 121 254 245 285 275 52 50 315 304 649 626 l133 130 -81 119
c-45 66 -115 167 -155 225 -40 58 -112 164 -161 235 -49 72 -93 135 -98 140
-4 6 -74 107 -155 225 -81 118 -174 253 -207 300 -56 81 -198 288 -408 595
-53 77 -100 145 -104 150 -5 6 -66 94 -137 198 -71 103 -132 187 -136 187 -3
0 -28 -53 -55 -117z"/>
<path d="M12655 11321 c-121 -54 -512 -227 -870 -386 -357 -158 -681 -302
-720 -319 -38 -18 -177 -79 -307 -137 -131 -57 -238 -110 -238 -116 0 -7 32
-171 71 -365 39 -194 73 -364 75 -378 3 -14 23 -115 45 -225 23 -110 43 -209
45 -220 2 -11 11 -54 19 -95 8 -41 17 -86 20 -100 3 -14 12 -59 20 -100 8 -41
18 -86 20 -100 3 -14 8 -41 11 -60 3 -19 9 -51 14 -70 7 -28 87 -421 106 -520
3 -14 14 -70 25 -125 12 -55 22 -109 24 -120 2 -11 8 -42 14 -70 11 -54 15
-72 31 -150 12 -58 17 -86 26 -135 8 -43 12 -62 25 -125 6 -27 12 -60 14 -72
2 -11 6 -29 9 -40 3 -10 19 -88 36 -173 16 -85 31 -164 34 -175 9 -44 158
-782 162 -805 3 -14 14 -70 25 -125 12 -55 23 -109 25 -120 2 -11 9 -45 15
-75 6 -30 12 -64 14 -75 2 -11 8 -40 14 -65 5 -25 13 -61 16 -80 3 -19 8 -42
10 -50 2 -8 7 -30 10 -49 3 -19 20 -100 37 -180 17 -80 30 -155 30 -166 -2
-37 15 6 28 75 14 77 13 69 40 195 11 55 30 143 40 195 11 52 29 138 40 190
20 94 67 316 74 355 3 11 16 73 30 138 14 65 28 131 31 145 2 15 19 92 36 172
17 80 33 156 34 170 2 14 8 43 14 65 11 44 57 262 65 310 5 28 28 135 61 285
8 36 17 76 19 90 3 14 21 102 41 195 20 94 43 206 51 250 8 44 19 94 24 110 5
17 11 44 14 60 2 17 18 93 35 170 16 77 32 151 34 165 3 14 23 111 45 215 23
105 44 205 47 223 3 19 14 71 24 115 11 45 22 96 24 112 3 17 10 50 15 75 6
25 13 56 16 70 2 14 10 50 16 80 6 30 13 65 16 78 3 13 15 74 29 135 13 62 26
123 29 137 2 14 18 88 35 165 16 77 32 151 35 165 3 14 14 70 25 125 20 100
61 290 80 375 5 25 12 56 14 70 3 14 24 115 47 225 23 110 44 211 46 225 3 14
9 41 14 60 5 19 12 51 15 70 3 19 10 51 15 70 5 19 11 51 14 71 3 20 8 43 12
52 3 10 2 17 -2 17 -5 -1 -108 -45 -229 -99z"/>
<path d="M15235 8220 c0 -1689 1 -3070 2 -3070 2 0 124 294 475 1145 38 94 76
184 83 200 7 17 29 71 50 120 20 50 43 104 51 122 8 17 14 34 14 38 0 3 11 30
24 58 13 29 65 153 116 277 51 124 126 306 168 405 41 99 95 230 119 290 39
96 84 203 113 270 5 11 56 135 113 275 58 140 141 341 184 445 l79 190 -138
200 c-76 110 -162 236 -193 280 -30 44 -90 132 -134 195 -44 63 -115 167 -158
230 -43 63 -82 120 -88 127 -5 6 -38 54 -73 105 -136 200 -511 744 -520 754
-5 5 -15 21 -22 35 -7 13 -16 26 -19 29 -4 3 -60 83 -125 178 -65 94 -119 172
-120 172 0 0 -1 -1381 -1 -3070z"/>
<path d="M10240 10250 c-58 -26 -321 -143 -585 -260 -264 -117 -498 -220 -520
-230 -104 -47 -276 -123 -700 -310 -253 -112 -462 -205 -464 -206 -3 -3 153
-199 197 -249 10 -11 54 -65 99 -120 81 -100 304 -372 369 -452 71 -85 556
-679 582 -712 15 -19 32 -39 37 -45 6 -6 28 -33 51 -61 22 -27 112 -138 200
-245 88 -107 272 -332 409 -500 137 -168 252 -307 255 -310 3 -3 41 -50 85
-105 44 -55 90 -111 101 -125 19 -22 257 -313 807 -985 134 -164 181 -222 226
-275 11 -14 20 -22 21 -19 0 4 -22 116 -49 250 -28 134 -52 255 -54 269 -3 14
-28 140 -57 280 -29 140 -54 266 -57 280 -2 14 -19 102 -38 195 -19 94 -36
181 -39 195 -4 23 -99 491 -112 550 -2 14 -9 48 -14 75 -4 28 -13 70 -19 95
-5 25 -12 56 -15 70 -2 14 -39 196 -81 405 -42 209 -79 391 -81 405 -3 14 -18
90 -34 170 -16 80 -31 156 -34 170 -2 14 -12 58 -20 97 -9 40 -18 85 -21 100
-6 33 -10 53 -30 153 -8 41 -17 86 -20 100 -3 14 -12 60 -21 103 -8 42 -18 90
-20 105 -3 15 -14 68 -24 117 -11 50 -21 101 -24 115 -2 14 -36 185 -76 380
-39 195 -74 366 -76 380 -20 109 -37 186 -43 191 -3 3 -53 -15 -111 -41z"/>
<path d="M5942 9185 c4 -3 176 -138 491 -382 129 -101 239 -183 245 -183 10 0
852 557 852 564 0 2 -358 4 -795 4 -438 0 -795 -2 -793 -3z"/>
<path d="M5568 9042 c-68 -66 -150 -145 -183 -177 -33 -31 -161 -155 -284
-274 -123 -119 -249 -241 -281 -271 -31 -30 -167 -161 -301 -291 -134 -130
-269 -260 -301 -290 -31 -30 -158 -153 -283 -274 -262 -253 -287 -277 -580
-560 -119 -115 -252 -244 -295 -285 -152 -147 -524 -506 -590 -570 -174 -168
-527 -510 -640 -619 l-125 -122 97 65 c54 37 100 66 103 66 3 0 11 5 18 11 23
20 1740 1159 1747 1159 5 0 10 3 12 8 2 4 95 68 208 143 113 75 582 387 1043
693 1366 907 1561 1037 1575 1051 11 10 -9 30 -115 111 -70 54 -130 100 -133
104 -3 3 -41 32 -85 65 -44 33 -82 62 -85 66 -5 5 -348 272 -382 297 -16 12
-31 0 -140 -106z"/>
<path d="M7648 9052 c-472 -311 -818 -545 -818 -553 0 -4 15 -18 33 -31 17
-12 39 -28 47 -35 8 -7 83 -65 165 -129 83 -64 164 -127 180 -140 45 -35 323
-251 405 -314 99 -76 107 -83 176 -137 89 -70 227 -177 499 -388 132 -102 247
-191 255 -198 8 -7 53 -41 100 -77 47 -36 90 -69 96 -75 6 -5 64 -50 128 -100
117 -89 317 -245 346 -268 27 -22 1173 -911 1240 -963 36 -27 67 -51 70 -54 9
-11 405 -316 420 -325 12 -7 -7 22 -30 45 -3 3 -23 28 -45 55 -22 28 -48 59
-57 70 -9 11 -41 50 -70 86 -48 59 -338 414 -380 464 -9 11 -171 209 -359 440
-189 231 -345 422 -349 425 -3 3 -41 50 -85 105 -44 55 -84 105 -90 111 -5 6
-55 66 -110 133 -85 104 -411 503 -520 636 -64 79 -278 341 -309 379 -17 21
-36 43 -41 50 -6 6 -71 85 -145 176 -74 91 -143 174 -152 185 -9 11 -62 76
-118 145 -56 69 -116 143 -135 165 -18 22 -67 82 -108 132 l-75 93 -164 -108z"/>
<path d="M16924 8773 c-8 -21 -40 -99 -70 -173 -31 -74 -64 -154 -75 -177 -10
-24 -19 -45 -19 -48 0 -3 -9 -24 -19 -48 -11 -23 -31 -71 -46 -107 -14 -36
-30 -74 -35 -85 -5 -11 -41 -99 -81 -195 -39 -96 -95 -231 -124 -300 -28 -69
-71 -172 -94 -230 -24 -58 -49 -118 -56 -135 -7 -16 -95 -228 -195 -470 -100
-242 -192 -465 -205 -495 -42 -100 -113 -272 -210 -510 -53 -129 -103 -248
-110 -265 -46 -103 -245 -593 -245 -602 0 -6 -3 -13 -7 -15 -5 -1 -15 -23 -24
-48 -9 -25 -19 -52 -23 -61 -7 -16 157 -17 2208 -17 1219 0 2216 2 2216 4 0 3
-29 46 -64 97 -35 51 -160 232 -277 402 -384 558 -422 612 -629 913 -113 163
-240 347 -281 407 -42 61 -105 153 -141 205 -36 52 -100 145 -141 205 -42 61
-146 211 -231 335 -85 124 -204 297 -265 385 -60 88 -113 165 -118 170 -4 6
-40 57 -79 115 -40 58 -126 184 -192 280 -67 96 -172 248 -233 338 -62 89
-114 162 -116 162 -1 0 -10 -17 -19 -37z"/>
<path d="M6330 8176 c-184 -123 -801 -533 -1370 -911 -569 -379 -1262 -839
-1540 -1024 -278 -185 -509 -338 -515 -340 -5 -2 -12 -7 -15 -10 -3 -3 -111
-76 -240 -162 -129 -86 -362 -241 -518 -345 -156 -104 -291 -193 -299 -199
-70 -44 -583 -386 -583 -389 0 -2 2264 -4 5030 -4 2767 0 5030 1 5030 2 0 2
-43 36 -96 77 -235 182 -532 412 -563 437 -19 15 -141 109 -270 210 -130 100
-243 188 -251 195 -14 11 -139 108 -215 167 -38 29 -59 45 -470 365 -170 133
-735 572 -1255 975 -520 404 -1074 834 -1232 957 -157 123 -288 223 -290 223
-2 0 -154 -101 -338 -224z"/>
</g>
</svg>
